<mxfile host="app.diagrams.net" modified="2023-09-19T07:46:51.486Z" agent="Mozilla/5.0 (Windows NT 10.0; Win64; x64) AppleWebKit/537.36 (KHTML, like Gecko) Chrome/117.0.0.0 Safari/537.36" etag="TZo0f8h3J7xjryDaXEAV" version="21.7.5" type="github">
  <diagram name="페이지-1" id="lJRpK2_EZAh4zD45dn1M">
    <mxGraphModel dx="989" dy="539" grid="1" gridSize="10" guides="1" tooltips="1" connect="1" arrows="1" fold="1" page="1" pageScale="1" pageWidth="827" pageHeight="1169" math="0" shadow="0">
      <root>
        <mxCell id="0" />
        <mxCell id="1" parent="0" />
        <mxCell id="5GLliRjOBxlWxBrmZSmd-18" style="rounded=0;orthogonalLoop=1;jettySize=auto;html=1;exitX=1;exitY=0.3333333333333333;exitDx=0;exitDy=0;exitPerimeter=0;entryX=0;entryY=0.5;entryDx=0;entryDy=0;endArrow=none;endFill=0;" edge="1" parent="1" source="5GLliRjOBxlWxBrmZSmd-1" target="5GLliRjOBxlWxBrmZSmd-6">
          <mxGeometry relative="1" as="geometry" />
        </mxCell>
        <mxCell id="5GLliRjOBxlWxBrmZSmd-1" value="이용자" style="shape=umlActor;verticalLabelPosition=bottom;verticalAlign=top;html=1;outlineConnect=0;" vertex="1" parent="1">
          <mxGeometry x="120" y="280" width="30" height="60" as="geometry" />
        </mxCell>
        <mxCell id="5GLliRjOBxlWxBrmZSmd-5" value="게시판" style="shape=umlFrame;whiteSpace=wrap;html=1;pointerEvents=0;" vertex="1" parent="1">
          <mxGeometry x="230" y="160" width="610" height="450" as="geometry" />
        </mxCell>
        <mxCell id="5GLliRjOBxlWxBrmZSmd-6" value="회원가입" style="rounded=1;whiteSpace=wrap;html=1;arcSize=40;fontColor=#000000;fillColor=#ffffc0;strokeColor=#ff0000;" vertex="1" parent="1">
          <mxGeometry x="250" y="260" width="120" height="40" as="geometry" />
        </mxCell>
        <mxCell id="5GLliRjOBxlWxBrmZSmd-26" style="rounded=0;orthogonalLoop=1;jettySize=auto;html=1;entryX=0.5;entryY=1;entryDx=0;entryDy=0;dashed=1;exitX=1;exitY=0.5;exitDx=0;exitDy=0;" edge="1" parent="1" source="5GLliRjOBxlWxBrmZSmd-8" target="5GLliRjOBxlWxBrmZSmd-11">
          <mxGeometry relative="1" as="geometry" />
        </mxCell>
        <mxCell id="5GLliRjOBxlWxBrmZSmd-8" value="게시판보기" style="rounded=1;whiteSpace=wrap;html=1;arcSize=40;fontColor=#000000;fillColor=#ffffc0;strokeColor=#ff0000;" vertex="1" parent="1">
          <mxGeometry x="250" y="350" width="120" height="40" as="geometry" />
        </mxCell>
        <mxCell id="5GLliRjOBxlWxBrmZSmd-37" style="rounded=0;orthogonalLoop=1;jettySize=auto;html=1;exitX=1;exitY=0.5;exitDx=0;exitDy=0;entryX=0;entryY=0.5;entryDx=0;entryDy=0;endArrow=none;endFill=0;" edge="1" parent="1" source="5GLliRjOBxlWxBrmZSmd-9" target="5GLliRjOBxlWxBrmZSmd-33">
          <mxGeometry relative="1" as="geometry" />
        </mxCell>
        <mxCell id="5GLliRjOBxlWxBrmZSmd-9" value="인증" style="rounded=1;whiteSpace=wrap;html=1;arcSize=40;fontColor=#000000;fillColor=#ffffc0;strokeColor=#ff0000;" vertex="1" parent="1">
          <mxGeometry x="707" y="180" width="120" height="40" as="geometry" />
        </mxCell>
        <mxCell id="5GLliRjOBxlWxBrmZSmd-10" value="게시글 보기" style="rounded=1;whiteSpace=wrap;html=1;arcSize=40;fontColor=#000000;fillColor=#ffffc0;strokeColor=#ff0000;" vertex="1" parent="1">
          <mxGeometry x="250" y="440" width="120" height="40" as="geometry" />
        </mxCell>
        <mxCell id="5GLliRjOBxlWxBrmZSmd-22" value="&lt;font style=&quot;font-size: 9px;&quot;&gt;&amp;lt;&amp;lt;include&amp;gt;&amp;gt;&lt;/font&gt;" style="edgeStyle=orthogonalEdgeStyle;rounded=0;orthogonalLoop=1;jettySize=auto;html=1;entryX=0;entryY=0.5;entryDx=0;entryDy=0;endArrow=classic;endFill=1;strokeWidth=1;dashed=1;" edge="1" parent="1" source="5GLliRjOBxlWxBrmZSmd-11" target="5GLliRjOBxlWxBrmZSmd-9">
          <mxGeometry relative="1" as="geometry" />
        </mxCell>
        <mxCell id="5GLliRjOBxlWxBrmZSmd-11" value="회원 로그인" style="rounded=1;whiteSpace=wrap;html=1;arcSize=40;fontColor=#000000;fillColor=#ffffc0;strokeColor=#ff0000;" vertex="1" parent="1">
          <mxGeometry x="405" y="180" width="120" height="40" as="geometry" />
        </mxCell>
        <mxCell id="5GLliRjOBxlWxBrmZSmd-12" value="로그인 실패" style="rounded=1;whiteSpace=wrap;html=1;arcSize=40;fontColor=#000000;fillColor=#ffffc0;strokeColor=#ff0000;" vertex="1" parent="1">
          <mxGeometry x="707" y="270" width="120" height="40" as="geometry" />
        </mxCell>
        <mxCell id="5GLliRjOBxlWxBrmZSmd-28" style="edgeStyle=orthogonalEdgeStyle;rounded=0;orthogonalLoop=1;jettySize=auto;html=1;dashed=1;" edge="1" parent="1" source="5GLliRjOBxlWxBrmZSmd-14">
          <mxGeometry relative="1" as="geometry">
            <mxPoint x="370" y="370" as="targetPoint" />
          </mxGeometry>
        </mxCell>
        <mxCell id="5GLliRjOBxlWxBrmZSmd-14" value="게시판 정렬" style="rounded=1;whiteSpace=wrap;html=1;arcSize=40;fontColor=#000000;fillColor=#ffffc0;strokeColor=#ff0000;" vertex="1" parent="1">
          <mxGeometry x="489" y="350" width="120" height="40" as="geometry" />
        </mxCell>
        <mxCell id="5GLliRjOBxlWxBrmZSmd-15" value="게시판 검색" style="rounded=1;whiteSpace=wrap;html=1;arcSize=40;fontColor=#000000;fillColor=#ffffc0;strokeColor=#ff0000;" vertex="1" parent="1">
          <mxGeometry x="489" y="400" width="120" height="40" as="geometry" />
        </mxCell>
        <mxCell id="5GLliRjOBxlWxBrmZSmd-16" value="게시글 쓰기, 수정, 삭제" style="rounded=1;whiteSpace=wrap;html=1;arcSize=40;fontColor=#000000;fillColor=#ffffc0;strokeColor=#ff0000;" vertex="1" parent="1">
          <mxGeometry x="480" y="470" width="155" height="40" as="geometry" />
        </mxCell>
        <mxCell id="5GLliRjOBxlWxBrmZSmd-17" value="댓글 쓰기, 수정, 삭제" style="rounded=1;whiteSpace=wrap;html=1;arcSize=40;fontColor=#000000;fillColor=#ffffc0;strokeColor=#ff0000;" vertex="1" parent="1">
          <mxGeometry x="480" y="530" width="155" height="40" as="geometry" />
        </mxCell>
        <mxCell id="5GLliRjOBxlWxBrmZSmd-19" style="rounded=0;orthogonalLoop=1;jettySize=auto;html=1;endArrow=none;endFill=0;entryX=0;entryY=0.5;entryDx=0;entryDy=0;" edge="1" parent="1" target="5GLliRjOBxlWxBrmZSmd-11">
          <mxGeometry relative="1" as="geometry">
            <mxPoint x="150" y="300" as="sourcePoint" />
            <mxPoint x="400" y="200" as="targetPoint" />
          </mxGeometry>
        </mxCell>
        <mxCell id="5GLliRjOBxlWxBrmZSmd-20" style="rounded=0;orthogonalLoop=1;jettySize=auto;html=1;endArrow=none;endFill=0;entryX=0;entryY=0.5;entryDx=0;entryDy=0;" edge="1" parent="1" target="5GLliRjOBxlWxBrmZSmd-10">
          <mxGeometry relative="1" as="geometry">
            <mxPoint x="150" y="300" as="sourcePoint" />
            <mxPoint x="417" y="217" as="targetPoint" />
          </mxGeometry>
        </mxCell>
        <mxCell id="5GLliRjOBxlWxBrmZSmd-21" style="rounded=0;orthogonalLoop=1;jettySize=auto;html=1;endArrow=none;endFill=0;entryX=0;entryY=0.5;entryDx=0;entryDy=0;" edge="1" parent="1" target="5GLliRjOBxlWxBrmZSmd-8">
          <mxGeometry relative="1" as="geometry">
            <mxPoint x="150" y="300" as="sourcePoint" />
            <mxPoint x="257" y="365" as="targetPoint" />
          </mxGeometry>
        </mxCell>
        <mxCell id="5GLliRjOBxlWxBrmZSmd-23" style="rounded=0;orthogonalLoop=1;jettySize=auto;html=1;endArrow=classic;endFill=1;exitX=0;exitY=0.5;exitDx=0;exitDy=0;dashed=1;entryX=1;entryY=0.5;entryDx=0;entryDy=0;" edge="1" parent="1" source="5GLliRjOBxlWxBrmZSmd-12" target="5GLliRjOBxlWxBrmZSmd-11">
          <mxGeometry relative="1" as="geometry">
            <mxPoint x="535" y="210" as="sourcePoint" />
            <mxPoint x="580" y="210" as="targetPoint" />
          </mxGeometry>
        </mxCell>
        <mxCell id="5GLliRjOBxlWxBrmZSmd-24" value="&amp;lt;&amp;lt;extend&amp;gt;&amp;gt;" style="edgeLabel;html=1;align=center;verticalAlign=middle;resizable=0;points=[];" vertex="1" connectable="0" parent="5GLliRjOBxlWxBrmZSmd-23">
          <mxGeometry x="-0.2456" y="-3" relative="1" as="geometry">
            <mxPoint as="offset" />
          </mxGeometry>
        </mxCell>
        <mxCell id="5GLliRjOBxlWxBrmZSmd-27" style="rounded=0;orthogonalLoop=1;jettySize=auto;html=1;entryX=0.5;entryY=1;entryDx=0;entryDy=0;dashed=1;exitX=1;exitY=0.5;exitDx=0;exitDy=0;" edge="1" parent="1" source="5GLliRjOBxlWxBrmZSmd-10" target="5GLliRjOBxlWxBrmZSmd-11">
          <mxGeometry relative="1" as="geometry">
            <mxPoint x="341" y="360" as="sourcePoint" />
            <mxPoint x="475" y="230" as="targetPoint" />
          </mxGeometry>
        </mxCell>
        <mxCell id="5GLliRjOBxlWxBrmZSmd-30" style="rounded=0;orthogonalLoop=1;jettySize=auto;html=1;dashed=1;" edge="1" parent="1">
          <mxGeometry relative="1" as="geometry">
            <mxPoint x="370" y="370" as="targetPoint" />
            <mxPoint x="490" y="420" as="sourcePoint" />
          </mxGeometry>
        </mxCell>
        <mxCell id="5GLliRjOBxlWxBrmZSmd-31" style="rounded=0;orthogonalLoop=1;jettySize=auto;html=1;dashed=1;exitX=0;exitY=0.5;exitDx=0;exitDy=0;entryX=1;entryY=0.5;entryDx=0;entryDy=0;" edge="1" parent="1" source="5GLliRjOBxlWxBrmZSmd-16" target="5GLliRjOBxlWxBrmZSmd-10">
          <mxGeometry relative="1" as="geometry">
            <mxPoint x="380" y="380" as="targetPoint" />
            <mxPoint x="500" y="430" as="sourcePoint" />
          </mxGeometry>
        </mxCell>
        <mxCell id="5GLliRjOBxlWxBrmZSmd-32" style="rounded=0;orthogonalLoop=1;jettySize=auto;html=1;dashed=1;exitX=0;exitY=0.5;exitDx=0;exitDy=0;entryX=1;entryY=0.5;entryDx=0;entryDy=0;" edge="1" parent="1" source="5GLliRjOBxlWxBrmZSmd-17" target="5GLliRjOBxlWxBrmZSmd-10">
          <mxGeometry relative="1" as="geometry">
            <mxPoint x="380" y="470" as="targetPoint" />
            <mxPoint x="490" y="500" as="sourcePoint" />
          </mxGeometry>
        </mxCell>
        <mxCell id="5GLliRjOBxlWxBrmZSmd-33" value="DB" style="html=1;dropTarget=0;whiteSpace=wrap;" vertex="1" parent="1">
          <mxGeometry x="910" y="200" width="90" height="90" as="geometry" />
        </mxCell>
        <mxCell id="5GLliRjOBxlWxBrmZSmd-38" style="rounded=0;orthogonalLoop=1;jettySize=auto;html=1;entryX=0;entryY=0.5;entryDx=0;entryDy=0;endArrow=none;endFill=0;" edge="1" parent="1" target="5GLliRjOBxlWxBrmZSmd-33">
          <mxGeometry relative="1" as="geometry">
            <mxPoint x="370" y="460" as="sourcePoint" />
            <mxPoint x="960" y="255" as="targetPoint" />
            <Array as="points">
              <mxPoint x="770" y="440" />
            </Array>
          </mxGeometry>
        </mxCell>
        <mxCell id="5GLliRjOBxlWxBrmZSmd-39" style="rounded=0;orthogonalLoop=1;jettySize=auto;html=1;entryX=0;entryY=0.5;entryDx=0;entryDy=0;endArrow=none;endFill=0;exitX=1;exitY=0.5;exitDx=0;exitDy=0;" edge="1" parent="1" source="5GLliRjOBxlWxBrmZSmd-8" target="5GLliRjOBxlWxBrmZSmd-33">
          <mxGeometry relative="1" as="geometry">
            <mxPoint x="380" y="470" as="sourcePoint" />
            <mxPoint x="960" y="255" as="targetPoint" />
            <Array as="points">
              <mxPoint x="700" y="250" />
            </Array>
          </mxGeometry>
        </mxCell>
        <mxCell id="5GLliRjOBxlWxBrmZSmd-40" style="rounded=0;orthogonalLoop=1;jettySize=auto;html=1;entryX=0;entryY=0.5;entryDx=0;entryDy=0;endArrow=none;endFill=0;exitX=1;exitY=0.5;exitDx=0;exitDy=0;" edge="1" parent="1" source="5GLliRjOBxlWxBrmZSmd-16" target="5GLliRjOBxlWxBrmZSmd-33">
          <mxGeometry relative="1" as="geometry">
            <mxPoint x="480" y="505" as="sourcePoint" />
            <mxPoint x="1060" y="380" as="targetPoint" />
            <Array as="points">
              <mxPoint x="830" y="440" />
            </Array>
          </mxGeometry>
        </mxCell>
        <mxCell id="5GLliRjOBxlWxBrmZSmd-41" style="rounded=0;orthogonalLoop=1;jettySize=auto;html=1;endArrow=none;endFill=0;exitX=1;exitY=0.5;exitDx=0;exitDy=0;entryX=0;entryY=0.5;entryDx=0;entryDy=0;" edge="1" parent="1" source="5GLliRjOBxlWxBrmZSmd-17" target="5GLliRjOBxlWxBrmZSmd-33">
          <mxGeometry relative="1" as="geometry">
            <mxPoint x="645" y="500" as="sourcePoint" />
            <mxPoint x="950" y="240" as="targetPoint" />
            <Array as="points">
              <mxPoint x="870" y="470" />
            </Array>
          </mxGeometry>
        </mxCell>
      </root>
    </mxGraphModel>
  </diagram>
</mxfile>
